<?xml version="1.0" encoding="UTF-8"?>
<svg width="60px" height="60px" viewBox="0 0 60 60" version="1.1" xmlns="http://www.w3.org/2000/svg" xmlns:xlink="http://www.w3.org/1999/xlink">
    <!-- Generator: Sketch 50.2 (55047) - http://www.bohemiancoding.com/sketch -->
    <title>instagram-logo</title>
    <desc>Created with Sketch.</desc>
    <defs></defs>
    <g id="Landing" stroke="none" stroke-width="1" fill="none" fill-rule="evenodd">
        <g id="Landing-Particulier" transform="translate(-1234.000000, -4503.000000)" fill="#FFFFFF" fill-rule="nonzero">
            <g id="Group-11" transform="translate(1234.000000, 4503.000000)">
                <g id="instagram-logo">
                    <path d="M30.3547015,36.4285714 C33.7007051,36.4285714 36.4285714,33.7055907 36.4285714,30.3571429 C36.4285714,29.035355 35.9961197,27.8149612 35.2802533,26.818123 C34.1771349,25.2886605 32.383804,24.2857143 30.3583663,24.2857143 C28.331707,24.2857143 26.5395977,25.2874389 25.4340361,26.8169014 C24.7157265,27.8137396 24.2869396,29.0341334 24.285718,30.3559212 C24.2820531,33.7043691 27.0074763,36.4285714 30.3547015,36.4285714 Z" id="Shape"></path>
                    <polygon id="Shape" points="43.5714286 22.8381032 43.5714286 17.880645 43.5714286 17.1428571 42.8277478 17.1452371 37.8571429 17.1607068 37.8762422 22.8571429"></polygon>
                    <path d="M30,0 C13.4580682,0 0,13.4580682 0,30 C0,46.5407234 13.4580682,60 30,60 C46.5407234,60 60,46.5407234 60,30 C60,13.4580682 46.5431403,0 30,0 Z M47.0615484,26.4992347 L47.0615484,40.4684605 C47.0615484,44.1069846 44.1033594,47.0639652 40.4672521,47.0639652 L19.5327479,47.0639652 C15.8954322,47.0639652 12.9384516,44.1069846 12.9384516,40.4684605 L12.9384516,26.4992347 L12.9384516,19.5339563 C12.9384516,15.8966406 15.8954322,12.93966 19.5327479,12.93966 L40.4660437,12.93966 C44.1033594,12.93966 47.0615484,15.8966406 47.0615484,19.5339563 L47.0615484,26.4992347 Z" id="Shape"></path>
                    <path d="M39.8219548,29.9102636 C39.8219548,35.0264402 35.5775236,39.1919718 30.3589808,39.1919718 C25.140438,39.1919718 20.8972321,35.0264402 20.8972321,29.9102636 C20.8972321,28.679593 21.1471928,27.5030046 21.5932012,26.4285714 L16.4285714,26.4285714 L16.4285714,40.321689 C16.4285714,42.1172182 17.9148575,43.5714286 19.744227,43.5714286 L40.9700588,43.5714286 C42.7969776,43.5714286 44.2857143,42.1172182 44.2857143,40.321689 L44.2857143,26.4285714 L39.118634,26.4285714 C39.5683182,27.5030046 39.8219548,28.679593 39.8219548,29.9102636 Z" id="Shape"></path>
                </g>
            </g>
        </g>
    </g>
</svg>